<svg id="Capa_1" data-name="Capa 1" xmlns="http://www.w3.org/2000/svg" viewBox="0 0 158 62"><defs><style>.cls-1{fill:#c6c5c5;}.cls-2{fill:#ff893e;}.cls-3{fill:#fff;}</style></defs><path class="cls-1" d="M3.4,52.1c-.1.9-.3,2-.7,4.3s-.6,3.8-.7,5.2H.3c.2-.8.3-1.5.6-3.3l.9-6.1V52H3.4Zm7.7,2.1c-.2,1.2-.4,2.3-.5,3.2s-.5,2.8-.7,4.2H8.2c-.3-.8-.4-1.2-.8-2.1L6,55.9l-.4,3-.3,2.7H3.9c.2-.8.3-1.5.5-2.8.5-2.9.6-3.9.7-4.5H6.8c.3.9.7,1.8.9,2.4L9,59.8l.4-3.1a20.7,20.7,0,0,0,.3-2.4h1.4ZM18.4,58a24.6,24.6,0,0,0-.6,3.3h-.1a6.9,6.9,0,0,1-2.4.4c-2.4,0-3.6-1.5-3.2-3.8a4.5,4.5,0,0,1,4.4-4,4.6,4.6,0,0,1,2,.5c.1,0,.1,0,.1.1a7,7,0,0,1-.3,1.2h-.1a2.5,2.5,0,0,0-1.8-.7,1.6,1.6,0,0,0-1,.2A3.2,3.2,0,0,0,13.6,58a2.4,2.4,0,0,0,.9,2.6l1,.2,1-.2c.1-.8.2-1.3.3-2.6h1.6Zm5.9,2.7a2.4,2.4,0,0,0-.2.9H19.2a32.3,32.3,0,0,0,.8-4.5c.3-1.6.3-2.1.4-2.8h4.9a3.2,3.2,0,0,0-.3.9H21.8a13,13,0,0,0-.4,2.1h3.1l-.2.9H21.2c-.1.9-.2,1.3-.4,2.4h3.5Zm8.4-6.5c-.2,1.2-.4,2.3-.5,3.2s-.5,2.8-.7,4.2H29.8c-.3-.8-.4-1.2-.8-2.1l-1.4-3.5-.4,3-.3,2.7H25.5c.2-.8.3-1.5.5-2.8.4-2.9.6-3.9.6-4.5h1.8c.3.9.7,1.8.9,2.4l1.3,3.2.4-3.1c.2-1.6.2-1.7.3-2.4h1.4Zm3.4,0c-.1.8-.3,1.6-.6,3.5s-.4,2.8-.5,3.9H33.5l.4-2.5c.3-1.6.5-3.3.7-4.8h1.5Zm5.8,6.5-.2.9H36.8a32.3,32.3,0,0,0,.8-4.5c.3-1.6.3-2.1.4-2.8h4.9l-.3.9H39.4c-.2.9-.2,1.1-.4,2.1h3.1l-.2.9H38.8c-.1.9-.2,1.3-.3,2.4h3.4Zm5.3,1-.9-1.8-.6-1.4a.6.6,0,0,1-.6,0c0,.2-.3,2-.4,3.1H43.1a19,19,0,0,0,.5-2.7,40,40,0,0,0,.6-4.6H48a1.7,1.7,0,0,1,1.2,1.9,2.8,2.8,0,0,1-2.1,2.1l.8,1.6,1,1.7H47.2Zm-1.3-4.1c.5-.1,1.6-.1,1.8-1.3s-.3-1-.7-1.1H45.6l-.4,2.5Zm10.9,1.7A3.8,3.8,0,0,1,53,61.8a3,3,0,0,1-1.3-.2c-1.6-.7-1.8-2.3-1.5-3.7A4.1,4.1,0,0,1,54.3,54c2.2,0,3.3,1.5,2.9,4A6.5,6.5,0,0,1,56.8,59.3Zm-2.6,1.3A3.4,3.4,0,0,0,55.7,58c.2-1.4.1-3-1.5-3a1.9,1.9,0,0,0-1,.3,1.6,1.6,0,0,0-.8.6,4.8,4.8,0,0,0-.7,2c-.3,1.7.2,2.9,1.5,2.9Zm8.8-5a2.8,2.8,0,0,0-1.7-.5c-.9,0-1.3.4-1.4.9s.3.8,1.4,1.3,1.8,1,1.6,2.3a2.9,2.9,0,0,1-3.1,2.2,3.4,3.4,0,0,1-2.1-.5h0a.6.6,0,0,1,.1-.4c0-.3.1-.5.1-.8h.2a2.2,2.2,0,0,0,1.8.8,1.4,1.4,0,0,0,1.5-1.1c.1-.6-.3-.9-1-1.2l-.5-.3a1.9,1.9,0,0,1-1.4-2.1A2.6,2.6,0,0,1,61.4,54a5.4,5.4,0,0,1,1.9.4h.1a2.9,2.9,0,0,0-.3,1.1Zm12.4,4.2a12.7,12.7,0,0,1-.4,1.4h-.1a5,5,0,0,1-2.6.6c-3,0-4.5-2-4-5a5.7,5.7,0,0,1,1.8-3.6A5.5,5.5,0,0,1,74,51.8a5.4,5.4,0,0,1,2.4.5h0c-.1.5-.2.6-.3,1.2H76a3.3,3.3,0,0,0-2.1-.7c-2.2,0-3.6,1.5-4,3.8s.8,3.8,2.7,3.8a5.1,5.1,0,0,0,2.7-.8Zm8-.5a4,4,0,0,1-3.8,2.5,3.4,3.4,0,0,1-1.4-.2c-1.5-.7-1.7-2.3-1.5-3.7A4.3,4.3,0,0,1,80.9,54c2.1,0,3.2,1.5,2.9,4A6.5,6.5,0,0,1,83.4,59.3Zm-2.6,1.3A4.1,4.1,0,0,0,82.3,58c.2-1.4,0-3-1.6-3l-1,.3a1.3,1.3,0,0,0-.7.6,3.7,3.7,0,0,0-.7,2c-.3,1.7.2,2.9,1.5,2.9Zm11.1-6.4c-.2,1.2-.4,2.3-.5,3.2l-.6,4.2H89.1a.1.1,0,0,0-.1-.1c-.3-.8-.4-1.2-.8-2.1l-1.4-3.5-.3,3a21.9,21.9,0,0,0-.4,2.7H84.7c.2-.8.3-1.5.5-2.8.5-2.9.6-3.9.7-4.5h1.7c.4.9.7,1.8.9,2.4l1.3,3.2.4-3.1a9.7,9.7,0,0,0,.3-2.4h1.4Zm5.6,1.4a2.8,2.8,0,0,0-1.7-.5,1.3,1.3,0,0,0-1.4.9c-.1.6.3.8,1.4,1.3s1.8,1,1.6,2.3a2.9,2.9,0,0,1-3.1,2.2,3.9,3.9,0,0,1-2.1-.5h0c0-.1.1-.3.1-.4a2.4,2.4,0,0,1,.2-.8h.1a2.2,2.2,0,0,0,1.8.8,1.4,1.4,0,0,0,1.5-1.1c.1-.6-.3-.9-1-1.2l-.4-.3c-.7-.3-1.7-.8-1.5-2.1A2.7,2.7,0,0,1,95.9,54a5.4,5.4,0,0,1,1.9.4h.1a8.1,8.1,0,0,0-.3,1.1Zm8.1-1.4c-.2.9-.4,2.5-.4,2.5a5,5,0,0,0-.2,1.2l-.2.9a3.2,3.2,0,0,1-1,2.3,3.6,3.6,0,0,1-2.4.7,2.7,2.7,0,0,1-2.2-.8,3.8,3.8,0,0,1-.3-2.6l.2-1c.2-1.5.2-1.7.4-3.1h1.6c-.3,1.5-.6,3.2-.6,3.4a11.5,11.5,0,0,0-.2,1.4c0,.6-.1,1.8,1.3,1.8a1.7,1.7,0,0,0,1.6-.8,4,4,0,0,0,.5-1.9c.1-.4.4-2.6.5-3.8h1.4Zm5.3,6.5-.2.9h-4.4c.3-1.5.4-2.1.7-3.8s.4-2.8.5-3.5h1.6c-.5,2.3-.9,4.7-.9,4.8s-.1.9-.2,1.6h2.9Zm5.4-5.5h-1.8c-.3,1.6-.7,4-.9,6.4H112c.3-1.5.5-2.9.7-4.4a17.8,17.8,0,0,0,.3-2h-1.9c.1-.3.1-.5.2-.8h5.3l-.2.9Zm7.2,4.1a4,4,0,0,1-3.8,2.5,3.2,3.2,0,0,1-1.4-.2c-1.5-.7-1.7-2.3-1.5-3.7S118.7,54,121,54s3.2,1.5,2.8,4A6.1,6.1,0,0,1,123.5,59.3Zm-2.6,1.3a3.6,3.6,0,0,0,1.4-2.6c.2-1.4.1-3-1.5-3a1.9,1.9,0,0,0-1,.3,1.6,1.6,0,0,0-.8.6,6.9,6.9,0,0,0-.7,2c-.3,1.7.2,2.9,1.6,2.9Zm8,1.1-.9-1.8-.7-1.4a.5.5,0,0,1-.5,0,27,27,0,0,0-.4,3.1h-1.6a19,19,0,0,0,.5-2.7,40,40,0,0,0,.6-4.6h3.8a1.7,1.7,0,0,1,1.2,1.9,2.8,2.8,0,0,1-2.1,2.1l.8,1.6,1,1.7h-1.7Zm-1.3-4.1c.4-.1,1.6-.1,1.8-1.3a.8.8,0,0,0-.8-1.1h-1.3l-.4,2.5Zm9,3.1-.2.9h-4.8c.3-1.2.3-1.6.8-4.5a24.2,24.2,0,0,0,.3-2.8h4.9l-.2.9h-3.3a13.3,13.3,0,0,0-.3,2.1h3l-.2.9h-3c-.2.9-.2,1.3-.4,2.4h3.4Zm6.1-5.1a2.8,2.8,0,0,0-1.7-.5c-.9,0-1.3.4-1.4.9s.3.8,1.4,1.3,1.8,1,1.6,2.3a2.9,2.9,0,0,1-3.1,2.2,3.4,3.4,0,0,1-2.1-.5h0a.6.6,0,0,1,.1-.4c0-.3.1-.5.1-.8h.2a2.2,2.2,0,0,0,1.8.8,1.4,1.4,0,0,0,1.5-1.1c.1-.6-.3-.9-1-1.2l-.5-.3a1.9,1.9,0,0,1-1.4-2.1,2.6,2.6,0,0,1,2.9-2.1,5.4,5.4,0,0,1,1.9.4h.1a2.9,2.9,0,0,0-.3,1.1Z"/><polygon class="cls-2" points="101.2 8.4 89.6 8.4 94.1 15.8 101.2 8.4"/><polygon class="cls-3" points="66.8 15.8 61.9 46.6 50.4 46.6 55.2 15.8 66.8 15.8"/><path class="cls-3" d="M12.3,24.3l-7.2,5L2.4,46.4l14.4.2c9-.1,30.5,1,35.3-22.5C56.1,4.3,40.2.1,27.9,0,22.1-.1,16,.2,9.6.2,9.4,1.8,6.7,18.6,6.7,18.6l5.6,5.7,7.6-5.7,1.3-7.9c5.9-.3,10.3-.4,13,.9,4.7,2.3,5.3,7.3,4.5,12.1C37.1,33.3,30.9,36,25.4,36.4c-2.2.1-5.8.2-8.3.1l1.1-7.2Z"/><path class="cls-3" d="M148.6,39.4H138.4c-3.4-.2-6.7-1.9-5.8-8,.5-3,1.8-6.1,5.2-7.6s8.9-.7,11.6-.6l1.2-7.3c-6.1-.2-15.8-.4-19.4,1.2-6.5,2.8-9.1,8.7-9.9,14.4-1.7,11.5,4.6,14.7,11,15.1h9.3Z"/><path class="cls-3" d="M82.6,15.8c-9.5,0-13.5,2-14.3,7.2L64.5,46.6H76.2l3.2-20.7c.2-1.5,1.5-2.9,8.1-2.9l6.6-7.2Z"/><path class="cls-3" d="M108,15.8H94.1L98.7,23c9.5,0,10,1.4,9.8,2.9l-.5,3h0c-1.6-1.4-6-1.7-8.8-1.7-5.7,0-11,1.6-12.3,9.6s3.6,9.7,9.2,9.7c2.9,0,7.3-.4,9.4-1.8h0l-.3,1.9h11.2L120.1,23C120.9,17.8,117.5,15.8,108,15.8Zm-1.7,23.6c-.9.6-3.8.7-5.3.7s-5-.6-4.6-3.2,2.9-3.3,5.6-3.3,4.3.2,5.1.8Z"/><polygon class="cls-3" points="56.5 8.3 55.6 13.6 67.1 13.6 68 8.3 56.5 8.3"/><path class="cls-3" d="M154.3,8.7h0a3.7,3.7,0,0,0-3.7,3.7,3.7,3.7,0,1,0,7.4,0A3.7,3.7,0,0,0,154.3,8.7Zm0,6.9a3.1,3.1,0,0,1-3-3.2,3,3,0,0,1,3-3.1h0a3.1,3.1,0,0,1,3,3.2A3,3,0,0,1,154.3,15.6Z"/><path class="cls-3" d="M155.7,13.6a1.2,1.2,0,0,0-.7-1h0a1,1,0,0,0,.8-1c0-.4-.1-.7-.4-.8a2,2,0,0,0-1.3-.4h-1.2v4.2h.7V12.8h.5a.8.8,0,0,1,.9.8,1.9,1.9,0,0,0,.2,1h.7C155.9,14.5,155.8,14.3,155.7,13.6Zm-1.6-1.3h-.5V10.9h.5c.7,0,1,.3,1,.7S154.6,12.3,154.1,12.3Z"/></svg>